<?xml version="1.0" encoding="UTF-8" standalone="no"?>
<svg
   width="502"
   height="622"
   viewBox="0 0 502 622"
   id="svg2"
   version="1.1"
   xml:space="preserve"
   sodipodi:docname="portrait_colour.svg"
   inkscape:version="1.1.1 (3bf5ae0d25, 2021-09-20)"
   xmlns:inkscape="http://www.inkscape.org/namespaces/inkscape"
   xmlns:sodipodi="http://sodipodi.sourceforge.net/DTD/sodipodi-0.dtd"
   xmlns="http://www.w3.org/2000/svg"
   xmlns:svg="http://www.w3.org/2000/svg"><sodipodi:namedview
     id="namedview13226"
     pagecolor="#505050"
     bordercolor="#eeeeee"
     borderopacity="1"
     inkscape:pageshadow="0"
     inkscape:pageopacity="0"
     inkscape:pagecheckerboard="0"
     showgrid="false"
     inkscape:zoom="1.2959502"
     inkscape:cx="292.44952"
     inkscape:cy="197.15264"
     inkscape:window-width="1920"
     inkscape:window-height="1017"
     inkscape:window-x="1912"
     inkscape:window-y="-8"
     inkscape:window-maximized="1"
     inkscape:current-layer="svg2" /><metadata
     id="metadata8" /><defs
     id="defs6" /><g
     id="g16860"
     transform="matrix(3.2388314,0,0,3.2388327,-11.600132,-11.001663)"><g
       id="g13416"><path
         id="path16"
         d="m 111.81253,80.89174 c 0,16.973999 -13.760399,30.7344 -30.732265,30.7344 -16.974533,0 -30.736533,-13.760401 -30.736533,-30.7344 0,-16.975733 13.762,-30.731733 30.736533,-30.731733 16.971866,0 30.732265,13.756 30.732265,30.731733"
         style="fill:#b2db18;fill-opacity:1;fill-rule:nonzero;stroke:none;stroke-width:0.133333" /><path
         id="path18"
         d="m 56.901599,84.842273 c 9.418133,5.380267 12.521866,14.5756 12.521866,14.5756 C 78.028665,88.649606 95.117198,77.95374 107.16146,75.674007 96.080664,73.150673 80.807865,79.86054 71.384932,88.89174 c 0,0 -7.371334,-5.112 -14.483333,-4.049467"
         style="fill:#231f20;fill-opacity:1;fill-rule:nonzero;stroke:none;stroke-width:0.133333" /><path
         id="path20"
         d="m 54.994799,81.78454 c 0,0 12.863599,-25.176533 52.166661,-8.674 0,0 -18.757862,-4.727867 -35.783328,12.072933 0,0 -5.8552,-5.305733 -16.383333,-3.398933"
         style="fill:#ffffff;fill-opacity:1;fill-rule:nonzero;stroke:none;stroke-width:0.133333" /><path
         id="path22"
         d="m 130.21253,80.89174 h -0.26667 c -5.3e-4,13.493733 -5.46986,25.70893 -14.31306,34.55267 -8.84427,8.84373 -21.058802,14.31346 -34.552535,14.31346 -13.495867,0 -25.711466,-5.46973 -34.555733,-14.31346 -8.843866,-8.84374 -14.313066,-21.058937 -14.313066,-34.55267 0,-13.495733 5.4692,-25.7104 14.313066,-34.553066 8.844267,-8.842666 21.059866,-14.312 34.555733,-14.312 13.493733,0 25.708265,5.469334 34.552535,14.312 8.8432,8.842666 14.31253,21.057333 14.31306,34.553066 h 0.26667 0.26667 c -5.4e-4,-27.283733 -22.11827,-49.398399 -49.398935,-49.398399 -27.284933,0 -49.402132,22.114666 -49.402132,49.398399 0,27.28027 22.117199,49.39947 49.402132,49.39947 27.280665,0 49.398395,-22.1192 49.398935,-49.39947 h -0.26667"
         style="fill:#231f20;fill-opacity:1;fill-rule:nonzero;stroke:none;stroke-width:0.133333" /><path
         id="path24"
         d="m 46.259866,90.506406 0.261466,0.9036 -6.3796,1.848933 0.520267,1.796934 -0.782267,0.226533 -1.3052,-4.5052 0.782267,-0.226533 0.523467,1.806266 6.3796,-1.850533"
         style="fill:#231f20;fill-opacity:1;fill-rule:nonzero;stroke:none;stroke-width:0.133333" /><path
         id="path26"
         d="m 42.572399,86.596406 -0.243733,-2.014533 -3.461467,1.386933 0.0025,0.02187 z m -4.679733,0.1 -0.147867,-1.223866 7.163067,-2.883334 0.1124,0.9328 -1.9676,0.7812 0.289066,2.392267 2.098934,0.310933 0.1124,0.932267 -7.6604,-1.242267"
         style="fill:#231f20;fill-opacity:1;fill-rule:nonzero;stroke:none;stroke-width:0.133333" /><path
         id="path28"
         d="m 37.449999,80.718806 0.0584,-1.0224 2.861333,-1.196266 -2.7052,-1.545867 0.05373,-0.938 3.5536,2.064534 3.897866,-1.7656 -0.05773,1.021866 -3.066133,1.3104 2.894266,1.703733 -0.05373,0.938 -3.671867,-2.196933 -3.764533,1.626533"
         style="fill:#231f20;fill-opacity:1;fill-rule:nonzero;stroke:none;stroke-width:0.133333" /><path
         id="path30"
         d="m 43.071332,68.300007 0.3704,-1.030667 c 0.1124,-0.316 0.09893,-0.628 -0.0428,-0.936 -0.140133,-0.309333 -0.4432,-0.546667 -0.9088,-0.713333 -0.3932,-0.142667 -0.737066,-0.157333 -1.031333,-0.04933 -0.294267,0.109333 -0.518667,0.379999 -0.673333,0.813333 l -0.349467,0.973333 z m -3.659866,-0.312 0.6412,-1.789334 c 0.03533,-0.09867 0.0828,-0.22 0.142133,-0.365333 0.0588,-0.145333 0.135867,-0.290666 0.2292,-0.438666 0.09373,-0.148 0.2104,-0.286667 0.349467,-0.418667 0.140133,-0.130667 0.307733,-0.233333 0.504666,-0.306667 0.1964,-0.07467 0.422934,-0.109333 0.680667,-0.106666 0.257867,0.004 0.553733,0.06533 0.888133,0.185333 0.3276,0.117333 0.6004,0.270667 0.817067,0.458667 0.2172,0.188 0.3808,0.402666 0.490133,0.643999 0.109867,0.241334 0.1652,0.501334 0.164134,0.781334 0,0.278666 -0.05267,0.564 -0.157334,0.857333 l -0.381733,1.065333 2.9692,1.064 -0.316667,0.884 -7.020266,-2.514666"
         style="fill:#231f20;fill-opacity:1;fill-rule:nonzero;stroke:none;stroke-width:0.133333" /><path
         id="path32"
         d="m 45.727066,61.736007 0.457333,-0.785333 c 0.06613,-0.114667 0.138,-0.252 0.214533,-0.413334 0.0776,-0.16 0.1172,-0.332 0.119334,-0.516 0.0025,-0.184 -0.05373,-0.372 -0.167734,-0.562666 -0.114533,-0.192 -0.328133,-0.377334 -0.641733,-0.56 -0.3244,-0.189334 -0.635333,-0.236 -0.931733,-0.142667 -0.295867,0.09333 -0.5536,0.330667 -0.7744,0.709333 l -0.550534,0.948 z m -3.397334,-0.888 1.212,-2.085333 c 0.2968,-0.512 0.6728,-0.833334 1.1276,-0.964 0.454667,-0.129334 0.937467,-0.04667 1.4484,0.249333 0.174934,0.102667 0.340134,0.22 0.495867,0.354667 0.1552,0.134666 0.284266,0.284 0.3864,0.446666 0.102133,0.164 0.1724,0.341334 0.210933,0.530667 0.03853,0.190667 0.02507,0.390667 -0.0412,0.601333 l 0.01827,0.01067 c 0.1932,-0.264 0.437066,-0.413333 0.730266,-0.446667 0.2932,-0.03333 0.583867,0.02133 0.8708,0.164 l 1.1328,0.586667 c 0.1844,0.09867 0.339067,0.172 0.4636,0.221333 0.124934,0.048 0.233867,0.07867 0.327067,0.092 l 0.235867,-0.0013 0.1844,-0.068 -0.547867,0.944 -0.214667,-0.0067 -0.274933,-0.076 -0.293733,-0.117333 -0.2704,-0.128 -1.033867,-0.528 c -0.233333,-0.112 -0.4296,-0.172 -0.589467,-0.18 -0.160533,-0.008 -0.298533,0.01333 -0.414666,0.06667 l -0.287467,0.225333 -0.2036,0.298667 -0.624533,1.074666 2.871866,1.668 -0.472933,0.813334 -6.4468,-3.746667"
         style="fill:#231f20;fill-opacity:1;fill-rule:nonzero;stroke:none;stroke-width:0.133333" /><path
         id="path34"
         d="m 50.908399,56.300007 1.3228,-1.538667 -3.359334,-1.62 -0.01453,0.01733 z m -3.231867,-3.386667 0.8032,-0.934666 6.9624,3.341333 -0.613467,0.712 -1.9036,-0.924 -1.570933,1.826667 1.1876,1.758666 -0.613067,0.713334 -4.252133,-6.493334"
         style="fill:#231f20;fill-opacity:1;fill-rule:nonzero;stroke:none;stroke-width:0.133333" /><path
         id="path36"
         d="m 58.755732,49.218674 c 0.2068,0.289333 0.377067,0.588 0.512533,0.894667 0.135334,0.306666 0.213467,0.612 0.2348,0.916 0.0224,0.304 -0.0296,0.604 -0.155733,0.897333 -0.126,0.293333 -0.345733,0.566666 -0.6604,0.82 -0.411867,0.332 -0.8124,0.509333 -1.200933,0.532 -0.389067,0.02133 -0.764134,-0.05867 -1.1256,-0.241334 -0.362,-0.182666 -0.7068,-0.436 -1.035334,-0.761333 -0.328666,-0.325333 -0.642266,-0.672 -0.939066,-1.04 -0.292267,-0.364 -0.562534,-0.742666 -0.809467,-1.138666 -0.2468,-0.396 -0.418133,-0.792 -0.514,-1.188 -0.0964,-0.397334 -0.0932,-0.781334 0.0088,-1.154667 0.102667,-0.373333 0.353733,-0.72 0.7552,-1.044 0.591733,-0.476 1.147467,-0.664 1.669867,-0.566667 0.521333,0.09867 1.021866,0.429334 1.500933,0.990667 l -0.732267,0.589333 c -0.136933,-0.158666 -0.2812,-0.298666 -0.4344,-0.421333 -0.153066,-0.122667 -0.311866,-0.209333 -0.476,-0.26 -0.162933,-0.052 -0.333866,-0.06 -0.509333,-0.02533 -0.176533,0.03467 -0.358933,0.128 -0.545867,0.278666 -0.253066,0.204 -0.403066,0.429334 -0.448933,0.676 -0.0464,0.248 -0.0208,0.513334 0.076,0.797334 0.09693,0.284 0.252667,0.584 0.4652,0.9 0.214,0.314666 0.4552,0.64 0.726,0.976 0.2708,0.337333 0.538,0.642666 0.800533,0.918666 0.2624,0.274667 0.5224,0.490667 0.779067,0.646667 0.2568,0.154666 0.511067,0.236 0.762,0.244 0.2516,0.008 0.503733,-0.09067 0.7568,-0.294667 0.219867,-0.177333 0.359333,-0.365333 0.4172,-0.564 0.0584,-0.198666 0.06507,-0.4 0.02133,-0.606666 -0.0432,-0.205334 -0.1244,-0.409334 -0.2448,-0.608 -0.118666,-0.198667 -0.247866,-0.389334 -0.3864,-0.573334 l 0.732267,-0.589333"
         style="fill:#231f20;fill-opacity:1;fill-rule:nonzero;stroke:none;stroke-width:0.133333" /><path
         id="path38"
         d="m 64.234398,48.940007 -0.825066,0.449334 -3.1796,-5.832 -1.6412,0.896 -0.390133,-0.716 4.117199,-2.245334 0.390134,0.716 -1.650534,0.9 3.1792,5.832"
         style="fill:#231f20;fill-opacity:1;fill-rule:nonzero;stroke:none;stroke-width:0.133333" /><path
         id="path40"
         d="m 65.200532,40.309341 0.8792,-0.333334 2.643733,6.972 -0.8792,0.333334 -2.643733,-6.972"
         style="fill:#231f20;fill-opacity:1;fill-rule:nonzero;stroke:none;stroke-width:0.133333" /><path
         id="path42"
         d="m 73.413598,45.596007 -0.916266,0.212 -1.488934,-6.474666 -1.821466,0.42 -0.183334,-0.794667 4.570933,-1.050666 0.182267,0.793333 -1.832266,0.421333 1.489066,6.473333"
         style="fill:#231f20;fill-opacity:1;fill-rule:nonzero;stroke:none;stroke-width:0.133333" /><path
         id="path44"
         d="m 76.656265,37.546674 0.935466,-0.084 0.671867,7.425333 -0.936,0.08533 -0.671333,-7.426667"
         style="fill:#231f20;fill-opacity:1;fill-rule:nonzero;stroke:none;stroke-width:0.133333" /><path
         id="path46"
         d="m 83.556265,38.004008 c -0.324534,-0.01867 -0.587467,0.048 -0.785467,0.2 -0.2,0.153333 -0.3588,0.366666 -0.477067,0.642666 -0.118666,0.276 -0.204666,0.602667 -0.2568,0.98 -0.05467,0.376 -0.09373,0.78 -0.1176,1.210667 -0.02453,0.432 -0.03187,0.837333 -0.02147,1.217333 0.01,0.381333 0.0584,0.714667 0.144266,1.002667 0.086,0.288 0.2188,0.518666 0.401067,0.693333 0.181333,0.173333 0.4328,0.269333 0.757333,0.288 0.325467,0.01867 0.585867,-0.048 0.7864,-0.201333 0.199067,-0.152 0.3584,-0.366667 0.476667,-0.641334 0.118133,-0.276 0.204667,-0.602666 0.257733,-0.978666 0.05373,-0.377334 0.09267,-0.781334 0.1172,-1.213334 0.02347,-0.430666 0.0312,-0.836 0.0208,-1.217333 -0.0104,-0.38 -0.05827,-0.714667 -0.1448,-1.001333 -0.08533,-0.286667 -0.219733,-0.518667 -0.400533,-0.692 -0.1812,-0.174667 -0.433733,-0.272 -0.757733,-0.289333 z m 0.04267,-0.750667 c 0.514667,0.028 0.921867,0.165333 1.221334,0.409333 0.299466,0.244 0.526133,0.554667 0.678133,0.933334 0.154267,0.378666 0.2448,0.799999 0.274,1.265333 0.02973,0.465333 0.03067,0.930666 0.0036,1.396 -0.026,0.473333 -0.08067,0.937333 -0.1624,1.393333 -0.0824,0.456 -0.2204,0.862667 -0.415733,1.221333 -0.194267,0.358667 -0.454667,0.641334 -0.7796,0.849334 -0.326134,0.208 -0.7464,0.297333 -1.259467,0.268 -0.515067,-0.02933 -0.921333,-0.165334 -1.221867,-0.409334 -0.299466,-0.244 -0.526,-0.554666 -0.679066,-0.933333 -0.152134,-0.377333 -0.243867,-0.798667 -0.272934,-1.26 -0.02973,-0.462667 -0.03133,-0.929333 -0.0037,-1.402667 0.02667,-0.465333 0.0808,-0.926666 0.162533,-1.386666 0.08227,-0.458667 0.220267,-0.868 0.414667,-1.226667 0.194667,-0.358666 0.4552,-0.641333 0.780667,-0.849333 0.325466,-0.208 0.745866,-0.297333 1.259866,-0.268"
         style="fill:#231f20;fill-opacity:1;fill-rule:nonzero;stroke:none;stroke-width:0.133333" /><path
         id="path48"
         d="m 89.799464,38.140008 0.8792,0.228 0.273467,0.07067 0.826533,6.642667 0.0192,0.0053 1.560534,-6.025333 0.888933,0.230666 -1.868133,7.218667 -0.8792,-0.228 -0.343734,-0.08933 -0.8036,-6.442667 -0.01933,-0.0053 -1.513067,5.844 -0.8896,-0.230667 1.8688,-7.218666"
         style="fill:#231f20;fill-opacity:1;fill-rule:nonzero;stroke:none;stroke-width:0.133333" /><path
         id="path50"
         d="m 97.940131,40.670674 3.488529,1.638667 -0.34693,0.737333 -2.636399,-1.238667 -0.9948,2.117334 2.485467,1.168 -0.345867,0.737333 -2.486,-1.166667 -1.1364,2.42 2.751067,1.290667 -0.3464,0.737333 -3.6016,-1.690666 3.169333,-6.750667"
         style="fill:#231f20;fill-opacity:1;fill-rule:nonzero;stroke:none;stroke-width:0.133333" /><path
         id="path52"
         d="m 103.39066,47.450674 0.74054,0.526667 c 0.1068,0.076 0.2376,0.161333 0.3912,0.252 0.15213,0.092 0.31973,0.146666 0.5036,0.166666 0.1824,0.01867 0.37346,-0.02 0.5756,-0.117333 0.20053,-0.096 0.40626,-0.290667 0.61613,-0.585333 0.2172,-0.306667 0.29427,-0.612 0.2276,-0.914667 -0.0661,-0.304 -0.27867,-0.582667 -0.63547,-0.837333 l -0.8948,-0.636 z m 1.19534,-3.302667 1.96613,1.398667 c 0.48173,0.342667 0.7672,0.746667 0.85573,1.210667 0.0885,0.464 -0.0391,0.938666 -0.38186,1.42 -0.1172,0.165333 -0.25,0.318666 -0.3968,0.461333 -0.14854,0.141333 -0.30894,0.257333 -0.4808,0.344 -0.17334,0.08667 -0.35574,0.14 -0.54787,0.161333 -0.19267,0.02133 -0.39213,-0.01067 -0.59373,-0.096 l -0.0136,0.01733 c 0.2448,0.216 0.37133,0.472 0.3776,0.768 0.007,0.294666 -0.0739,0.578666 -0.2432,0.852 l -0.68747,1.074666 c -0.1156,0.173334 -0.2032,0.321334 -0.26307,0.441334 l -0.1224,0.315999 -0.0192,0.236 0.0505,0.189334 -0.88907,-0.632 0.0244,-0.213333 0.1032,-0.266667 0.1432,-0.282667 0.152,-0.256 0.62147,-0.981333 c 0.1312,-0.222667 0.20933,-0.413333 0.2328,-0.570667 0.0224,-0.158666 0.0129,-0.298666 -0.0303,-0.418666 l -0.19733,-0.308 -0.27867,-0.229334 -1.0136,-0.72 -1.92387,2.705334 -0.76626,-0.544 4.322,-6.077334"
         style="fill:#231f20;fill-opacity:1;fill-rule:nonzero;stroke:none;stroke-width:0.133333" /><path
         id="path54"
         d="m 111.78746,52.758674 c 0.1412,-0.134667 0.2568,-0.273334 0.34694,-0.414667 0.0907,-0.141333 0.1468,-0.285333 0.16666,-0.429333 0.0192,-0.145333 10e-4,-0.294667 -0.0563,-0.448 -0.0557,-0.153333 -0.15987,-0.308 -0.30987,-0.462667 -0.27613,-0.285333 -0.56093,-0.433333 -0.8568,-0.442666 -0.29587,-0.0093 -0.586,0.124 -0.8708,0.4 -0.25,0.241333 -0.38187,0.490666 -0.3948,0.746666 -0.0131,0.257334 0.0312,0.518667 0.1344,0.785333 0.10093,0.265334 0.2276,0.538667 0.3776,0.817334 0.1484,0.28 0.2624,0.565333 0.33947,0.856 0.0781,0.289333 0.0844,0.588 0.022,0.892 -0.0636,0.305333 -0.25734,0.616 -0.58334,0.930666 -0.31,0.3 -0.61666,0.497334 -0.922,0.593334 -0.30466,0.096 -0.59373,0.122666 -0.8692,0.07867 -0.27506,-0.044 -0.5328,-0.14 -0.774,-0.290666 -0.2416,-0.149334 -0.45413,-0.317334 -0.638,-0.508 -0.30573,-0.316 -0.51826,-0.616 -0.63906,-0.901334 -0.1208,-0.284 -0.16507,-0.561333 -0.1344,-0.829333 0.0319,-0.266667 0.1328,-0.534667 0.30466,-0.802667 0.172,-0.269333 0.40107,-0.541333 0.68654,-0.816 l 0.6536,0.674667 c -0.15,0.145333 -0.2916,0.297333 -0.4244,0.454667 -0.13387,0.157333 -0.2292,0.326666 -0.28654,0.509333 -0.0572,0.181333 -0.0563,0.374667 0.003,0.578667 0.0572,0.205333 0.20307,0.429333 0.4348,0.669333 0.12667,0.129333 0.26667,0.230667 0.42453,0.301333 0.15627,0.072 0.31507,0.109334 0.4776,0.112 0.16307,0.0027 0.32454,-0.028 0.486,-0.092 0.1604,-0.064 0.31347,-0.166666 0.45827,-0.306666 0.19013,-0.184 0.30987,-0.370667 0.35933,-0.56 0.0496,-0.188 0.0589,-0.382667 0.0276,-0.58 -0.0328,-0.198667 -0.0963,-0.4 -0.1932,-0.604 -0.0957,-0.204 -0.19213,-0.413334 -0.29106,-0.624 -0.098,-0.212 -0.188,-0.426667 -0.26827,-0.646667 -0.0823,-0.218666 -0.12653,-0.438666 -0.1328,-0.661333 -0.007,-0.222667 0.0375,-0.450667 0.1312,-0.684 0.0948,-0.232 0.26467,-0.466667 0.5104,-0.704 0.12507,-0.121333 0.28813,-0.245333 0.4896,-0.372 0.20053,-0.128 0.43333,-0.209333 0.698,-0.248 0.26453,-0.03733 0.54947,-0.0053 0.85573,0.096 0.30574,0.101333 0.62334,0.321333 0.95254,0.661333 0.49893,0.516 0.73853,1.012 0.72133,1.489334 -0.0181,0.477333 -0.27187,0.963999 -0.7624,1.457333 l -0.65427,-0.676"
         style="fill:#231f20;fill-opacity:1;fill-rule:nonzero;stroke:none;stroke-width:0.133333" /><path
         id="path56"
         d="m 116.41933,61.376007 0.48333,0.937333 0.19267,0.306667 c 0.0844,0.116 0.19373,0.216 0.33013,0.298667 0.13707,0.08267 0.30107,0.126666 0.4928,0.134666 0.19107,0.0053 0.41347,-0.056 0.66774,-0.186666 0.35306,-0.181334 0.57706,-0.409334 0.67186,-0.681334 0.0937,-0.272 0.0364,-0.612 -0.17453,-1.02 l -0.474,-0.92 z m -3.1,1.598667 0.57387,1.114666 c 0.112,0.216 0.2396,0.381334 0.38386,0.494667 0.1464,0.113333 0.29747,0.185333 0.45467,0.218667 0.15787,0.032 0.3204,0.03067 0.4896,-0.0067 0.16933,-0.036 0.33493,-0.096 0.4964,-0.178667 0.2276,-0.117333 0.40467,-0.252 0.52707,-0.401333 0.1224,-0.149333 0.20413,-0.309333 0.2464,-0.48 0.0411,-0.170667 0.0443,-0.345333 0.009,-0.528 -0.0355,-0.181333 -0.0989,-0.361333 -0.1916,-0.541333 l -0.50214,-0.974667 z m 5.52707,-3.909334 1.0484,2.033334 c 0.112,0.216 0.19213,0.441333 0.2416,0.674666 0.0496,0.232 0.0496,0.461334 -0.002,0.688 -0.0527,0.226667 -0.16147,0.444 -0.32814,0.650667 -0.16666,0.208 -0.41146,0.396 -0.73333,0.561333 -0.1484,0.07733 -0.30893,0.132 -0.4792,0.165334 -0.17027,0.03333 -0.33853,0.04133 -0.5052,0.02133 -0.16667,-0.01867 -0.32653,-0.064 -0.48173,-0.136 -0.15467,-0.072 -0.29174,-0.170667 -0.41147,-0.296 l -0.0183,0.01067 c 0.1104,0.457333 0.0693,0.853333 -0.12493,1.192 -0.19373,0.336 -0.49587,0.612 -0.90373,0.822666 -0.6744,0.346667 -1.2536,0.413333 -1.73854,0.196 -0.4828,-0.216 -0.90306,-0.670666 -1.26146,-1.362666 l -0.92867,-1.801334 6.62667,-3.42"
         style="fill:#231f20;fill-opacity:1;fill-rule:nonzero;stroke:none;stroke-width:0.133333" /><path
         id="path58"
         d="m 122.33066,68.880007 c -0.0895,-0.312 -0.24053,-0.537334 -0.45146,-0.674667 -0.20987,-0.137333 -0.4652,-0.216 -0.76467,-0.236 -0.29947,-0.01867 -0.63533,0.008 -1.0088,0.084 -0.37293,0.076 -0.7672,0.173333 -1.1812,0.293333 -0.41573,0.121334 -0.79947,0.249334 -1.1552,0.385334 -0.35533,0.137333 -0.6548,0.293333 -0.89693,0.470666 -0.24214,0.177334 -0.41507,0.38 -0.51827,0.609334 -0.10413,0.228 -0.11093,0.498666 -0.0208,0.810666 0.0912,0.312 0.24213,0.537334 0.45213,0.674667 0.21094,0.137333 0.46454,0.216 0.764,0.234667 0.29947,0.02133 0.63547,-0.008 1.00894,-0.08267 0.37386,-0.076 0.76706,-0.173333 1.1828,-0.293333 0.41346,-0.121334 0.79946,-0.249334 1.15466,-0.386667 0.35574,-0.136 0.6536,-0.293333 0.89587,-0.469333 0.24213,-0.177334 0.4156,-0.38 0.51973,-0.609334 0.1036,-0.228 0.1104,-0.498666 0.0192,-0.810666 z m 0.7224,-0.210667 c 0.14387,0.496 0.15,0.924 0.0215,1.289333 -0.1308,0.364 -0.348,0.68 -0.65427,0.950667 -0.30573,0.269333 -0.67293,0.496 -1.10253,0.678667 -0.42813,0.184 -0.8672,0.34 -1.31507,0.469333 -0.4548,0.133333 -0.91053,0.236533 -1.3672,0.310933 -0.4568,0.07453 -0.88706,0.08027 -1.28906,0.01573 -0.40374,-0.0636 -0.75787,-0.214667 -1.06254,-0.452 -0.3032,-0.238667 -0.52866,-0.604 -0.67186,-1.098667 -0.14427,-0.494667 -0.15107,-0.924 -0.0208,-1.289333 0.12853,-0.364 0.34786,-0.681334 0.6536,-0.950667 0.30466,-0.270667 0.67026,-0.496 1.0964,-0.678667 0.426,-0.181333 0.86613,-0.338666 1.32026,-0.469333 0.44787,-0.130667 0.90254,-0.233333 1.3636,-0.309333 0.45934,-0.076 0.89,-0.08267 1.29427,-0.01733 0.402,0.064 0.75613,0.214667 1.06093,0.452 0.30467,0.237334 0.52854,0.604 0.6728,1.098667"
         style="fill:#231f20;fill-opacity:1;fill-rule:nonzero;stroke:none;stroke-width:0.133333" /><path
         id="path60"
         d="m 119.71773,76.223607 0.19013,2.0208 3.4968,-1.293734 -0.002,-0.02093 z m 4.68067,0.02493 0.11466,1.227067 -7.23706,2.691733 -0.0869,-0.936534 1.9864,-0.727066 -0.22333,-2.399467 -2.09013,-0.366666 -0.0885,-0.936 7.62494,1.446933"
         style="fill:#231f20;fill-opacity:1;fill-rule:nonzero;stroke:none;stroke-width:0.133333" /><path
         id="path62"
         d="m 121.20053,83.328273 -0.0808,0.904667 c -0.0113,0.1328 -0.0181,0.2864 -0.0192,0.465066 -0.003,0.178134 0.0349,0.35 0.1104,0.519334 0.0755,0.166666 0.20733,0.3124 0.39067,0.437466 0.1848,0.124934 0.45826,0.203067 0.81866,0.2344 0.374,0.03387 0.67614,-0.05467 0.90427,-0.2656 0.22853,-0.209466 0.36147,-0.533866 0.40053,-0.969866 l 0.0963,-1.092667 z m 3.45413,-0.637067 -0.21293,2.403734 c -0.0537,0.588533 -0.2568,1.039066 -0.6136,1.350533 -0.3568,0.310933 -0.82973,0.44 -1.41827,0.3864 -0.20146,-0.01667 -0.40106,-0.05467 -0.5984,-0.109333 -0.19786,-0.05573 -0.3776,-0.135467 -0.53906,-0.240667 -0.16307,-0.105733 -0.30107,-0.235867 -0.41667,-0.392133 -0.11613,-0.156267 -0.18747,-0.342267 -0.21773,-0.56 l -0.0208,-0.0025 c -0.0641,0.320267 -0.22134,0.5588 -0.4724,0.713467 -0.2516,0.155333 -0.5364,0.2292 -0.8584,0.221467 l -1.2744,-0.05213 c -0.20894,-0.0104 -0.3808,-0.01307 -0.5136,-0.0027 -0.13387,0.0079 -0.2448,0.02613 -0.3344,0.0548 l -0.21347,0.101466 -0.13907,0.138 0.0973,-1.085866 0.19533,-0.086 0.28227,-0.0468 0.31666,-0.01827 0.29854,0.0016 1.15986,0.04013 c 0.2588,0.0025 0.46254,-0.02707 0.61094,-0.08707 0.14786,-0.06147 0.264,-0.1396 0.3464,-0.236934 l 0.16506,-0.327066 0.0573,-0.3552 0.11093,-1.238534 -3.30893,-0.294266 0.0833,-0.935467 7.42813,0.659333"
         style="fill:#231f20;fill-opacity:1;fill-rule:nonzero;stroke:none;stroke-width:0.133333" /><path
         id="path64"
         d="m 116.84013,89.930806 -0.2656,0.923467 c -0.11093,0.3812 -0.11,0.709333 0.002,0.985467 0.1136,0.273333 0.28907,0.510399 0.53027,0.705733 0.2396,0.197866 0.5244,0.360933 0.85253,0.492133 0.32813,0.130267 0.65267,0.242133 0.97453,0.336 0.34734,0.1004 0.69534,0.1864 1.04427,0.257733 0.3484,0.07293 0.67453,0.0912 0.9776,0.05987 0.30213,-0.0312 0.57133,-0.138 0.80827,-0.315067 0.236,-0.178133 0.41306,-0.4688 0.52866,-0.869733 l 0.2672,-0.921866 z m 6.70253,0.9584 -0.55466,1.916667 c -0.15987,0.554666 -0.3812,0.971333 -0.66347,1.247333 -0.28387,0.278667 -0.612,0.455733 -0.9876,0.536533 -0.3744,0.08067 -0.78587,0.08333 -1.2364,0.01293 -0.45107,-0.07293 -0.92347,-0.1796 -1.41827,-0.322934 -0.45573,-0.1328 -0.8864,-0.294266 -1.29586,-0.484266 -0.40827,-0.190134 -0.7536,-0.424534 -1.03587,-0.700534 -0.2828,-0.278666 -0.4808,-0.604266 -0.59373,-0.976666 -0.112,-0.373333 -0.0989,-0.804667 0.0427,-1.2916 l 0.57974,-2.007867 7.16346,2.0704"
         style="fill:#231f20;fill-opacity:1;fill-rule:nonzero;stroke:none;stroke-width:0.133333" /><path
         id="path66"
         d="m 49.078665,103.68347 0.375467,0.50147 c 0.2172,0.29013 0.452133,0.462 0.7052,0.51573 0.253733,0.0547 0.541733,-0.0391 0.865733,-0.28133 0.551467,-0.41293 0.618667,-0.89733 0.202,-1.45467 l -0.424933,-0.57026 z m 1.7088,-3.15626 1.6636,2.22546 c 0.375467,0.50107 0.540667,0.98707 0.495867,1.45574 -0.04587,0.4672 -0.3272,0.89586 -0.845867,1.28386 -0.402133,0.30054 -0.7896,0.46467 -1.164133,0.49227 -0.374933,0.0285 -0.725467,-0.10053 -1.052,-0.38707 l -0.0172,0.0131 c 0.126533,0.22653 0.197867,0.42973 0.214,0.60933 0.01667,0.17867 -0.02133,0.35414 -0.112933,0.5276 -0.0928,0.17294 -0.2376,0.35414 -0.436534,0.54174 -0.1984,0.18746 -0.454666,0.4036 -0.768666,0.6468 -0.3136,0.24226 -0.542267,0.4428 -0.687067,0.598 -0.144267,0.15626 -0.205733,0.3124 -0.183333,0.46973 l -0.05,0.038 -0.986934,-1.32027 c 0.03693,-0.124 0.104134,-0.236 0.2,-0.33333 l 0.313467,-0.288 1.121467,-0.88907 c 0.225466,-0.18653 0.366133,-0.3828 0.421866,-0.58746 0.05573,-0.20427 -0.0095,-0.4308 -0.1948,-0.67814 l -0.4756,-0.63706 -2.525999,1.8896 -0.901067,-1.20467 5.971866,-4.46613"
         style="fill:#231f20;fill-opacity:1;fill-rule:nonzero;stroke:none;stroke-width:0.133333" /><path
         id="path68"
         d="m 58.518265,109.04961 -0.828133,0.91253 -1.973467,-1.7876 -1.1776,1.29947 1.8568,1.68333 -0.8276,0.91307 -1.857333,-1.68227 -1.3464,1.48547 2.050533,1.85826 -0.827066,0.91254 -3.1656,-2.8672 5.007866,-5.526 3.088,2.7984"
         style="fill:#231f20;fill-opacity:1;fill-rule:nonzero;stroke:none;stroke-width:0.133333" /><path
         id="path70"
         d="m 62.153598,114.12881 c 0.06827,-0.11307 0.1276,-0.24227 0.178134,-0.38654 0.05053,-0.1432 0.07707,-0.2864 0.08133,-0.42706 0.0031,-0.1396 -0.02133,-0.2724 -0.07187,-0.39587 -0.0516,-0.12493 -0.1428,-0.22653 -0.273466,-0.30627 -0.309867,-0.18746 -0.638,-0.1484 -0.983867,0.11467 -0.345867,0.26293 -0.759333,0.7932 -1.241733,1.59267 -0.233333,0.38653 -0.4312,0.74226 -0.592667,1.06253 -0.161466,0.32133 -0.276533,0.6104 -0.345333,0.8656 -0.06867,0.2552 -0.0796,0.47547 -0.03387,0.66147 0.04587,0.18746 0.161467,0.336 0.3464,0.44786 l 0.292134,0.0912 c 0.1172,0.0131 0.241733,0.004 0.3724,-0.0312 0.131333,-0.0349 0.261999,-0.1 0.393866,-0.1964 0.130667,-0.0953 0.2484,-0.2308 0.352533,-0.40266 l 0.393734,-0.6536 -0.849467,-0.51307 0.5724,-0.94627 2.083333,1.25627 -2.0776,3.44267 -0.947866,-0.57134 0.356266,-0.59013 -0.01827,-0.0115 c -0.306267,0.15734 -0.602667,0.22654 -0.888,0.2084 -0.286,-0.0183 -0.5808,-0.1188 -0.884933,-0.30213 -0.3932,-0.23693 -0.669867,-0.50413 -0.828667,-0.79947 -0.159333,-0.29586 -0.222933,-0.6276 -0.190133,-0.99893 0.03227,-0.36987 0.1516,-0.77973 0.357866,-1.2292 0.205734,-0.44893 0.476,-0.95053 0.810934,-1.5052 0.324,-0.53653 0.642133,-0.98707 0.955733,-1.35 0.313067,-0.36467 0.6344,-0.63173 0.965066,-0.80213 0.3308,-0.1708 0.674534,-0.24107 1.031334,-0.21347 0.356666,0.0285 0.7416,0.16667 1.152533,0.41507 0.7036,0.42453 1.104667,0.9052 1.204133,1.44013 0.09947,0.5364 -0.0468,1.12907 -0.438533,1.77867 l -1.233867,-0.7448"
         style="fill:#231f20;fill-opacity:1;fill-rule:nonzero;stroke:none;stroke-width:0.133333" /><path
         id="path72"
         d="m 64.315598,121.01934 2.7568,-6.92813 1.397334,0.55573 -2.756667,6.92867 -1.397467,-0.55627"
         style="fill:#231f20;fill-opacity:1;fill-rule:nonzero;stroke:none;stroke-width:0.133333" /><path
         id="path74"
         d="m 71.141732,120.84121 -0.04747,0.2136 c -0.03747,0.1692 -0.0588,0.32813 -0.06253,0.4724 -0.0036,0.14586 0.02093,0.27493 0.07453,0.38546 l 0.245867,0.29054 c 0.1104,0.0817 0.263466,0.14426 0.460933,0.18853 0.223867,0.0495 0.442133,0.0224 0.6552,-0.0844 0.2124,-0.10573 0.352533,-0.31133 0.421333,-0.61707 0.03587,-0.16306 0.04533,-0.31 0.0276,-0.4376 -0.01773,-0.12906 -0.06667,-0.25253 -0.147866,-0.37133 -0.08027,-0.1172 -0.1948,-0.2344 -0.344267,-0.34893 -0.1496,-0.1156 -0.337067,-0.24067 -0.5636,-0.3776 -0.302133,-0.1808 -0.557333,-0.362 -0.766133,-0.54427 -0.209867,-0.18227 -0.374534,-0.3776 -0.495867,-0.58693 -0.1208,-0.2084 -0.193733,-0.43494 -0.218267,-0.67974 -0.02387,-0.24373 -0.002,-0.5156 0.06413,-0.81506 0.160933,-0.7204 0.480133,-1.21254 0.9604,-1.47667 0.479733,-0.26453 1.069333,-0.3176 1.769333,-0.16293 0.326533,0.0729 0.6192,0.176 0.878,0.3088 0.26,0.1328 0.472,0.30053 0.637066,0.5052 0.164534,0.20413 0.275467,0.44373 0.3328,0.71613 0.0568,0.27347 0.0468,0.58333 -0.0308,0.92973 l -0.0452,0.20414 -1.407333,-0.31347 c 0.0776,-0.3464 0.07547,-0.62667 -0.0052,-0.8412 -0.0808,-0.2136 -0.2636,-0.35307 -0.5484,-0.41667 -0.1636,-0.0364 -0.305333,-0.0432 -0.424,-0.0197 l -0.302133,0.13173 -0.192667,0.2396 -0.106266,0.30827 c -0.04947,0.224 -0.04427,0.42347 0.0172,0.598 0.06093,0.1744 0.233333,0.3604 0.5172,0.55827 l 1.022399,0.74226 c 0.2448,0.18227 0.442667,0.36094 0.592667,0.5328 0.150533,0.17294 0.262,0.34734 0.3328,0.52334 0.07187,0.1772 0.1068,0.36053 0.1068,0.5532 0,0.19266 -0.02453,0.40106 -0.07493,0.62653 -0.170934,0.76667 -0.519334,1.28227 -1.0448,1.54267 -0.5256,0.262 -1.185467,0.30373 -1.980267,0.12666 -0.829733,-0.18493 -1.380666,-0.50266 -1.6552,-0.95213 -0.274533,-0.45053 -0.3364,-1.01147 -0.1864,-1.68333 l 0.0656,-0.29694 1.467734,0.32814"
         style="fill:#231f20;fill-opacity:1;fill-rule:nonzero;stroke:none;stroke-width:0.133333" /><path
         id="path76"
         d="m 82.351065,116.96361 -0.038,1.23186 -1.628134,-0.0495 -0.187066,6.22133 -1.503067,-0.0443 0.186933,-6.22293 -1.628666,-0.048 0.0376,-1.23173 4.7604,0.1432"
         style="fill:#231f20;fill-opacity:1;fill-rule:nonzero;stroke:none;stroke-width:0.133333" /><path
         id="path78"
         d="m 88.721331,116.16267 0.186533,1.2176 -2.631866,0.40214 0.264667,1.7344 2.477599,-0.37867 0.185867,1.2188 -2.4776,0.37853 0.303733,1.98187 2.735334,-0.41773 0.186533,1.21866 -4.222933,0.6444 -1.126533,-7.37093 4.118666,-0.62907"
         style="fill:#231f20;fill-opacity:1;fill-rule:nonzero;stroke:none;stroke-width:0.133333" /><path
         id="path80"
         d="m 93.584931,118.14174 0.5896,-0.21347 c 0.339467,-0.1224 0.5728,-0.29693 0.699467,-0.52346 0.1244,-0.22654 0.1192,-0.52974 -0.01827,-0.90987 -0.233333,-0.64853 -0.678667,-0.85427 -1.333333,-0.6188 l -0.668267,0.24213 z m -2.520933,-2.55467 2.613066,-0.94266 c 0.590134,-0.212 1.1016,-0.2292 1.536534,-0.0495 0.4348,0.1796 0.762933,0.5744 0.983333,1.18227 0.168667,0.47133 0.212933,0.89066 0.1312,1.25773 -0.08173,0.36627 -0.3088,0.66413 -0.677067,0.89333 l 0.0077,0.0197 c 0.254266,-0.0547 0.4688,-0.064 0.644266,-0.0276 0.176134,0.0365 0.333334,0.124 0.472934,0.26306 0.138,0.138 0.269866,0.3296 0.390666,0.5744 0.1208,0.2448 0.252667,0.5532 0.3948,0.92454 0.140667,0.3708 0.265067,0.64693 0.3724,0.83066 0.1068,0.18334 0.238,0.2876 0.395867,0.31254 l 0.0208,0.0599 -1.549467,0.5584 -0.262,-0.28746 c -0.06613,-0.12147 -0.126,-0.24907 -0.183333,-0.3844 l -0.525067,-1.33174 c -0.111866,-0.26986 -0.257733,-0.46253 -0.437466,-0.57453 -0.1796,-0.11307 -0.415067,-0.1172 -0.705734,-0.0115 l -0.747333,0.26934 1.070267,2.9676 -1.414,0.5104 -2.5324,-7.01454"
         style="fill:#231f20;fill-opacity:1;fill-rule:nonzero;stroke:none;stroke-width:0.133333" /><path
         id="path82"
         d="m 101.47133,110.65894 0.63547,1.05573 -2.282269,1.374 0.904669,1.50254 2.1468,-1.2916 0.636,1.05573 -2.1484,1.2916 1.03373,1.7188 2.372,-1.42707 0.63533,1.05627 -3.66146,2.20147 -3.843736,-6.38907 3.571866,-2.1484"
         style="fill:#231f20;fill-opacity:1;fill-rule:nonzero;stroke:none;stroke-width:0.133333" /><path
         id="path84"
         d="m 108.84733,112.89601 0.4948,-0.4496 c 0.19173,-0.1728 0.31667,-0.34734 0.3776,-0.5244 0.0605,-0.17707 0.0553,-0.37507 -0.0156,-0.59267 -0.0697,-0.2172 -0.20773,-0.4636 -0.41347,-0.73813 -0.20733,-0.27334 -0.4808,-0.59894 -0.82186,-0.97547 -0.28494,-0.31507 -0.54427,-0.5792 -0.77707,-0.79533 -0.2344,-0.21614 -0.45573,-0.37494 -0.66467,-0.47654 -0.20933,-0.1016 -0.41346,-0.13546 -0.61306,-0.10053 -0.19947,0.0355 -0.4036,0.14733 -0.61614,0.34013 l -0.47133,0.42707 z m -5.37853,-3.69534 1.82706,-1.6552 c 0.3864,-0.3516 0.75627,-0.5704 1.10774,-0.66 0.3516,-0.0885 0.69906,-0.0744 1.04426,0.0401 0.34387,0.11613 0.68854,0.31773 1.03494,0.60573 0.34533,0.28907 0.7032,0.63653 1.07186,1.04427 0.44534,0.4896 0.798,0.94013 1.06094,1.34893 0.26466,0.41 0.42866,0.79693 0.4948,1.16 0.0651,0.36187 0.0292,0.71093 -0.1104,1.04427 -0.1396,0.33333 -0.39587,0.66813 -0.7672,1.0052 l -1.75627,1.59106 -5.00773,-5.5244"
         style="fill:#231f20;fill-opacity:1;fill-rule:nonzero;stroke:none;stroke-width:0.133333" /></g><text
       x="80.507378"
       y="144"
       style="font-size:10px;font-family:'Arial Narrow';text-align:center;text-anchor:middle"
       id="text13221">Tax Agent</text><text
       x="80.507378"
       y="158"
       style="font-size:10px;font-family:'Arial Narrow';text-align:center;text-anchor:middle"
       id="text13223">26233096</text></g></svg>
